<svg width="760" height="460" viewBox="0 0 760 460" fill="none" xmlns="http://www.w3.org/2000/svg">
  <defs>
    <linearGradient id="bg" x1="0" y1="0" x2="760" y2="460" gradientUnits="userSpaceOnUse">
      <stop stop-color="#04050A"/>
      <stop offset="0.55" stop-color="#12132B"/>
      <stop offset="1" stop-color="#1A1D42"/>
    </linearGradient>
  </defs>

  <rect width="760" height="460" rx="30" fill="url(#bg)"/>
  <circle cx="96" cy="84" r="120" fill="#A78BFA" fill-opacity="0.14"/>
  <circle cx="676" cy="394" r="160" fill="#67E8F9" fill-opacity="0.12"/>

  <rect x="58" y="64" width="642" height="332" rx="26" fill="#0A0D1E" stroke="#2F3A77"/>

  <rect x="90" y="96" width="170" height="122" rx="16" fill="#111838" stroke="#354B9A"/>
  <rect x="90" y="236" width="170" height="122" rx="16" fill="#111838" stroke="#354B9A"/>

  <rect x="278" y="96" width="204" height="262" rx="16" fill="#0C1531" stroke="#3A57A9"/>
  <rect x="510" y="96" width="158" height="122" rx="16" fill="#111838" stroke="#354B9A"/>
  <rect x="510" y="236" width="158" height="122" rx="16" fill="#111838" stroke="#354B9A"/>

  <circle cx="145" cy="132" r="20" fill="#7EDBFF"/>
  <circle cx="145" cy="272" r="20" fill="#A5B4FC"/>
  <circle cx="561" cy="132" r="20" fill="#6EE7B7"/>
  <circle cx="561" cy="272" r="20" fill="#F9A8D4"/>
  <circle cx="340" cy="138" r="22" fill="#93C5FD"/>
  <circle cx="420" cy="316" r="22" fill="#C4B5FD"/>

  <path d="M165 132H320" stroke="#6C8DDA" stroke-width="3"/>
  <path d="M165 272H320" stroke="#6C8DDA" stroke-width="3"/>
  <path d="M380 160V294" stroke="#6C8DDA" stroke-width="3"/>
  <path d="M440 316H541" stroke="#6C8DDA" stroke-width="3"/>
  <path d="M440 138H541" stroke="#6C8DDA" stroke-width="3"/>

  <rect x="316" y="206" width="128" height="48" rx="24" fill="#16295B"/>
  <text x="380" y="237" text-anchor="middle" fill="#DDF2FF" font-family="Segoe UI, Arial" font-size="16" font-weight="700">ISHU.FUN</text>
</svg>
