<svg width="760" height="460" viewBox="0 0 760 460" fill="none" xmlns="http://www.w3.org/2000/svg">
  <defs>
    <linearGradient id="bg" x1="0" y1="0" x2="760" y2="460" gradientUnits="userSpaceOnUse">
      <stop stop-color="#050816"/>
      <stop offset="0.55" stop-color="#111a34"/>
      <stop offset="1" stop-color="#1a2444"/>
    </linearGradient>
    <linearGradient id="glass" x1="0" y1="0" x2="0" y2="1">
      <stop stop-color="#7EDBFF" stop-opacity="0.26"/>
      <stop offset="1" stop-color="#7EDBFF" stop-opacity="0.04"/>
    </linearGradient>
  </defs>

  <rect width="760" height="460" rx="30" fill="url(#bg)"/>
  <circle cx="118" cy="96" r="130" fill="#22D3EE" fill-opacity="0.12"/>
  <circle cx="620" cy="390" r="168" fill="#60A5FA" fill-opacity="0.15"/>
  <rect x="68" y="80" width="460" height="290" rx="24" fill="#0D152D" stroke="#304272"/>
  <rect x="92" y="102" width="410" height="170" rx="16" fill="#070B1B" stroke="#1E2A4D"/>
  <rect x="112" y="122" width="190" height="14" rx="7" fill="#29B8F1" fill-opacity="0.72"/>
  <rect x="112" y="148" width="140" height="10" rx="5" fill="#6DA4FF" fill-opacity="0.55"/>
  <rect x="112" y="170" width="238" height="10" rx="5" fill="#6DA4FF" fill-opacity="0.45"/>
  <rect x="112" y="212" width="110" height="34" rx="17" fill="#1E325F"/>
  <rect x="234" y="212" width="124" height="34" rx="17" fill="#17345D"/>
  <circle cx="426" cy="187" r="52" fill="#0B1124" stroke="#2B3E74"/>
  <polygon points="416,163 416,211 454,187" fill="#BFE5FF"/>
  <rect x="92" y="286" width="410" height="62" rx="14" fill="url(#glass)" stroke="#29406F"/>
  <rect x="112" y="308" width="210" height="10" rx="5" fill="#D9F2FF" fill-opacity="0.75"/>
  <rect x="336" y="308" width="138" height="10" rx="5" fill="#95CFFF" fill-opacity="0.65"/>
  <rect x="548" y="126" width="140" height="232" rx="24" fill="#09122A" stroke="#2C4D8F"/>
  <rect x="570" y="154" width="96" height="10" rx="5" fill="#D9F2FF" fill-opacity="0.75"/>
  <rect x="570" y="178" width="72" height="10" rx="5" fill="#8EC2FF" fill-opacity="0.7"/>
  <rect x="570" y="220" width="96" height="96" rx="14" fill="#0E1A3A" stroke="#3459A6"/>
  <path d="M590 280L612 258L629 273L654 248" stroke="#7EDBFF" stroke-width="6" stroke-linecap="round" stroke-linejoin="round"/>
</svg>
