<svg width="760" height="460" viewBox="0 0 760 460" fill="none" xmlns="http://www.w3.org/2000/svg">
  <defs>
    <linearGradient id="bg" x1="0" y1="0" x2="760" y2="460" gradientUnits="userSpaceOnUse">
      <stop stop-color="#04060F"/>
      <stop offset="0.6" stop-color="#111B3A"/>
      <stop offset="1" stop-color="#16305D"/>
    </linearGradient>
    <radialGradient id="g1" cx="0" cy="0" r="1" gradientUnits="userSpaceOnUse" gradientTransform="translate(380 228) rotate(90) scale(180)">
      <stop stop-color="#60A5FA" stop-opacity="0.38"/>
      <stop offset="1" stop-color="#60A5FA" stop-opacity="0"/>
    </radialGradient>
  </defs>

  <rect width="760" height="460" rx="30" fill="url(#bg)"/>
  <rect width="760" height="460" rx="30" fill="url(#g1)"/>
  <circle cx="380" cy="228" r="118" fill="#090F20" stroke="#365DA5" stroke-width="2"/>
  <circle cx="380" cy="228" r="82" fill="none" stroke="#2B4B83" stroke-width="2"/>
  <circle cx="380" cy="228" r="46" fill="none" stroke="#3E70C4" stroke-width="2"/>

  <circle cx="380" cy="100" r="14" fill="#7EDBFF"/>
  <circle cx="532" cy="196" r="12" fill="#A5B4FC"/>
  <circle cx="476" cy="338" r="12" fill="#6EE7B7"/>
  <circle cx="284" cy="338" r="12" fill="#F9A8D4"/>
  <circle cx="228" cy="196" r="12" fill="#FDE68A"/>

  <path d="M380 100L532 196L476 338L284 338L228 196L380 100Z" stroke="#628EDA" stroke-width="2"/>
  <path d="M380 228L380 100" stroke="#4F78BF"/>
  <path d="M380 228L532 196" stroke="#4F78BF"/>
  <path d="M380 228L476 338" stroke="#4F78BF"/>
  <path d="M380 228L284 338" stroke="#4F78BF"/>
  <path d="M380 228L228 196" stroke="#4F78BF"/>

  <rect x="58" y="58" width="214" height="86" rx="18" fill="#081326" stroke="#2C4D8F"/>
  <rect x="84" y="84" width="162" height="12" rx="6" fill="#DDF2FF" fill-opacity="0.8"/>
  <rect x="84" y="106" width="120" height="10" rx="5" fill="#8EC2FF" fill-opacity="0.7"/>

  <rect x="492" y="320" width="214" height="86" rx="18" fill="#081326" stroke="#2C4D8F"/>
  <rect x="518" y="346" width="162" height="12" rx="6" fill="#DDF2FF" fill-opacity="0.8"/>
  <rect x="518" y="368" width="120" height="10" rx="5" fill="#8EC2FF" fill-opacity="0.7"/>
</svg>
